REM DIRINDEX 1\2,1\3,1\4,1\5
REM DIRNAME cjc087,folder01,folder02,folder03,folder04
TITLE ""
FILE "Chapter_07.mp3" MP3
  TRACK 01 AUDIO
    TITLE "0:"
    INDEX 01 00:00:00
  TRACK 02 AUDIO
    TITLE "5:cjc087_1931"
    INDEX 01 00:00:09
  TRACK 03 AUDIO
    TITLE "0:"
    INDEX 01 00:01:60
  TRACK 04 AUDIO
    TITLE "5:cjc087_1932"
    INDEX 01 00:03:21
  TRACK 05 AUDIO
    TITLE "0:"
    INDEX 01 00:05:32
  TRACK 06 AUDIO
    TITLE "4:cjc087_1933"
    INDEX 01 00:06:30
  TRACK 07 AUDIO
    TITLE "3:cjc087_1934"
    INDEX 01 00:08:30
  TRACK 08 AUDIO
    TITLE "0:"
    INDEX 01 00:11:05
  TRACK 09 AUDIO
    TITLE "4:cjc087_1935"
    INDEX 01 00:12:05
  TRACK 10 AUDIO
    TITLE "3:cjc087_1936"
    INDEX 01 00:14:53
  TRACK 11 AUDIO
    TITLE "0:"
    INDEX 01 00:18:05
  TRACK 12 AUDIO
    TITLE "4:cjc087_1937"
    INDEX 01 00:18:72
  TRACK 13 AUDIO
    TITLE "3:cjc087_1938"
    INDEX 01 00:21:37
  TRACK 14 AUDIO
    TITLE "0:"
    INDEX 01 00:26:11
  TRACK 15 AUDIO
    TITLE "4:cjc087_1939"
    INDEX 01 00:27:10
  TRACK 16 AUDIO
    TITLE "3:cjc087_1940"
    INDEX 01 00:29:05
  TRACK 17 AUDIO
    TITLE "0:"
    INDEX 01 00:31:45
  TRACK 18 AUDIO
    TITLE "4:cjc087_1941"
    INDEX 01 00:32:43
  TRACK 19 AUDIO
    TITLE "3:cjc087_1942"
    INDEX 01 00:36:74
  TRACK 20 AUDIO
    TITLE "0:"
    INDEX 01 00:42:00
  TRACK 21 AUDIO
    TITLE "4:cjc087_1943"
    INDEX 01 00:42:74
  TRACK 22 AUDIO
    TITLE "3:cjc087_1944"
    INDEX 01 00:44:52
  TRACK 23 AUDIO
    TITLE "0:"
    INDEX 01 00:47:09
  TRACK 24 AUDIO
    TITLE "4:cjc087_1945"
    INDEX 01 00:48:06
  TRACK 25 AUDIO
    TITLE "3:cjc087_1946"
    INDEX 01 00:49:57
  TRACK 26 AUDIO
    TITLE "0:"
    INDEX 01 00:52:43
  TRACK 27 AUDIO
    TITLE "5:cjc087_1947"
    INDEX 01 00:54:05
  TRACK 28 AUDIO
    TITLE "0:"
    INDEX 01 00:56:12
  TRACK 29 AUDIO
    TITLE "4:cjc087_1948"
    INDEX 01 00:57:09
  TRACK 30 AUDIO
    TITLE "3:cjc087_1949"
    INDEX 01 00:58:64
  TRACK 31 AUDIO
    TITLE "0:"
    INDEX 01 01:01:13
  TRACK 32 AUDIO
    TITLE "4:cjc087_1950"
    INDEX 01 01:02:10
  TRACK 33 AUDIO
    TITLE "3:cjc087_1951"
    INDEX 01 01:06:45
  TRACK 34 AUDIO
    TITLE "0:"
    INDEX 01 01:09:07
  TRACK 35 AUDIO
    TITLE "4:cjc087_1952"
    INDEX 01 01:10:06
  TRACK 36 AUDIO
    TITLE "3:cjc087_1953"
    INDEX 01 01:11:45
  TRACK 37 AUDIO
    TITLE "0:"
    INDEX 01 01:13:59
  TRACK 38 AUDIO
    TITLE "4:cjc087_1954"
    INDEX 01 01:14:59
  TRACK 39 AUDIO
    TITLE "3:cjc087_1955"
    INDEX 01 01:16:54
  TRACK 40 AUDIO
    TITLE "0:"
    INDEX 01 01:19:07
  TRACK 41 AUDIO
    TITLE "4:cjc087_1956"
    INDEX 01 01:20:04
  TRACK 42 AUDIO
    TITLE "3:cjc087_1957"
    INDEX 01 01:21:55
  TRACK 43 AUDIO
    TITLE "0:"
    INDEX 01 01:23:46
  TRACK 44 AUDIO
    TITLE "4:cjc087_1958"
    INDEX 01 01:24:45
  TRACK 45 AUDIO
    TITLE "3:cjc087_1959"
    INDEX 01 01:25:60
  TRACK 46 AUDIO
    TITLE "0:"
    INDEX 01 01:27:63
  TRACK 47 AUDIO
    TITLE "4:cjc087_1960"
    INDEX 01 01:28:63
  TRACK 48 AUDIO
    TITLE "3:cjc087_1961"
    INDEX 01 01:30:73
  TRACK 49 AUDIO
    TITLE "0:"
    INDEX 01 01:33:29
  TRACK 50 AUDIO
    TITLE "5:cjc087_1962"
    INDEX 01 01:34:63
  TRACK 51 AUDIO
    TITLE "0:"
    INDEX 01 01:36:72
  TRACK 52 AUDIO
    TITLE "4:cjc087_1963"
    INDEX 01 01:37:69
  TRACK 53 AUDIO
    TITLE "3:cjc087_1964"
    INDEX 01 01:40:74
  TRACK 54 AUDIO
    TITLE "0:"
    INDEX 01 01:43:52
  TRACK 55 AUDIO
    TITLE "4:cjc087_1965"
    INDEX 01 01:44:52
  TRACK 56 AUDIO
    TITLE "3:cjc087_1966"
    INDEX 01 01:46:31
  TRACK 57 AUDIO
    TITLE "0:"
    INDEX 01 01:48:71
  TRACK 58 AUDIO
    TITLE "4:cjc087_1967"
    INDEX 01 01:49:69
  TRACK 59 AUDIO
    TITLE "3:cjc087_1968"
    INDEX 01 01:51:25
  TRACK 60 AUDIO
    TITLE "0:"
    INDEX 01 01:53:39
  TRACK 61 AUDIO
    TITLE "4:cjc087_1969"
    INDEX 01 01:54:37
  TRACK 62 AUDIO
    TITLE "3:cjc087_1970"
    INDEX 01 01:56:65
  TRACK 63 AUDIO
    TITLE "0:"
    INDEX 01 01:59:24
  TRACK 64 AUDIO
    TITLE "4:cjc087_1971"
    INDEX 01 02:00:24
  TRACK 65 AUDIO
    TITLE "3:cjc087_1972"
    INDEX 01 02:01:74
  TRACK 66 AUDIO
    TITLE "0:"
    INDEX 01 02:03:73
  TRACK 67 AUDIO
    TITLE "4:cjc087_1973"
    INDEX 01 02:04:72
  TRACK 68 AUDIO
    TITLE "3:cjc087_1974"
    INDEX 01 02:07:35
  TRACK 69 AUDIO
    TITLE "0:"
    INDEX 01 02:10:24
  TRACK 70 AUDIO
    TITLE "4:cjc087_1975"
    INDEX 01 02:11:25
  TRACK 71 AUDIO
    TITLE "3:cjc087_1976"
    INDEX 01 02:13:10
  TRACK 72 AUDIO
    TITLE "0:"
    INDEX 01 02:16:60
  TRACK 73 AUDIO
    TITLE "2:cjc087_1977"
    INDEX 01 02:18:19
  TRACK 74 AUDIO
    TITLE "0:"
    INDEX 01 02:31:44
  TRACK 75 AUDIO
    TITLE "5:cjc087_1978"
    INDEX 01 02:33:11
  TRACK 76 AUDIO
    TITLE "0:"
    INDEX 01 02:35:28
  TRACK 77 AUDIO
    TITLE "3:cjc087_1979"
    INDEX 01 02:36:21
  TRACK 78 AUDIO
    TITLE "4:cjc087_1980"
    INDEX 01 02:37:74
  TRACK 79 AUDIO
    TITLE "0:"
    INDEX 01 02:39:49
  TRACK 80 AUDIO
    TITLE "3:cjc087_1981"
    INDEX 01 02:40:47
  TRACK 81 AUDIO
    TITLE "4:cjc087_1982"
    INDEX 01 02:43:00
  TRACK 82 AUDIO
    TITLE "0:"
    INDEX 01 02:45:40
  TRACK 83 AUDIO
    TITLE "3:cjc087_1983"
    INDEX 01 02:46:37
  TRACK 84 AUDIO
    TITLE "4:cjc087_1984"
    INDEX 01 02:48:09
  TRACK 85 AUDIO
    TITLE "0:"
    INDEX 01 02:49:42
  TRACK 86 AUDIO
    TITLE "3:cjc087_1985"
    INDEX 01 02:50:37
  TRACK 87 AUDIO
    TITLE "4:cjc087_1986"
    INDEX 01 02:52:26
  TRACK 88 AUDIO
    TITLE "0:"
    INDEX 01 02:54:04
  TRACK 89 AUDIO
    TITLE "3:cjc087_1987"
    INDEX 01 02:55:03
  TRACK 90 AUDIO
    TITLE "4:cjc087_1988"
    INDEX 01 02:56:59
  TRACK 91 AUDIO
    TITLE "0:"
    INDEX 01 02:58:37
  TRACK 92 AUDIO
    TITLE "3:cjc087_1989"
    INDEX 01 02:59:34
  TRACK 93 AUDIO
    TITLE "4:cjc087_1990"
    INDEX 01 03:01:13
  TRACK 94 AUDIO
    TITLE "0:"
    INDEX 01 03:02:32
  TRACK 95 AUDIO
    TITLE "3:cjc087_1991"
    INDEX 01 03:03:30
  TRACK 96 AUDIO
    TITLE "4:cjc087_1992"
    INDEX 01 03:05:29
  TRACK 97 AUDIO
    TITLE "0:"
    INDEX 01 03:07:04
  TRACK 98 AUDIO
    TITLE "3:cjc087_1993"
    INDEX 01 03:08:10
  TRACK 99 AUDIO
    TITLE "4:cjc087_1994"
    INDEX 01 03:09:68
  TRACK 100 AUDIO
    TITLE "0:"
    INDEX 01 03:13:03
  TRACK 101 AUDIO
    TITLE "3:cjc087_1995"
    INDEX 01 03:14:06
  TRACK 102 AUDIO
    TITLE "4:cjc087_1996"
    INDEX 01 03:16:52
  TRACK 103 AUDIO
    TITLE "0:"
    INDEX 01 03:19:27
  TRACK 104 AUDIO
    TITLE "5:cjc087_1997"
    INDEX 01 03:20:56
  TRACK 105 AUDIO
    TITLE "0:"
    INDEX 01 03:22:66
  TRACK 106 AUDIO
    TITLE "4:cjc087_1998"
    INDEX 01 03:23:64
  TRACK 107 AUDIO
    TITLE "3:cjc087_1999"
    INDEX 01 03:25:59
  TRACK 108 AUDIO
    TITLE "0:"
    INDEX 01 03:28:44
  TRACK 109 AUDIO
    TITLE "4:cjc087_2000"
    INDEX 01 03:29:41
  TRACK 110 AUDIO
    TITLE "3:cjc087_2001"
    INDEX 01 03:32:10
  TRACK 111 AUDIO
    TITLE "0:"
    INDEX 01 03:34:68
  TRACK 112 AUDIO
    TITLE "4:cjc087_2002"
    INDEX 01 03:35:67
  TRACK 113 AUDIO
    TITLE "3:cjc087_2003"
    INDEX 01 03:37:64
  TRACK 114 AUDIO
    TITLE "0:"
    INDEX 01 03:40:06
  TRACK 115 AUDIO
    TITLE "4:cjc087_2004"
    INDEX 01 03:41:05
  TRACK 116 AUDIO
    TITLE "3:cjc087_2005"
    INDEX 01 03:43:24
  TRACK 117 AUDIO
    TITLE "0:"
    INDEX 01 03:45:44
  TRACK 118 AUDIO
    TITLE "4:cjc087_2006"
    INDEX 01 03:46:42
  TRACK 119 AUDIO
    TITLE "3:cjc087_2007"
    INDEX 01 03:48:25
  TRACK 120 AUDIO
    TITLE "0:"
    INDEX 01 03:50:63
  TRACK 121 AUDIO
    TITLE "4:cjc087_2008"
    INDEX 01 03:51:60
  TRACK 122 AUDIO
    TITLE "3:cjc087_2009"
    INDEX 01 03:55:25
  TRACK 123 AUDIO
    TITLE "0:"
    INDEX 01 03:58:68
  TRACK 124 AUDIO
    TITLE "4:cjc087_2010"
    INDEX 01 03:59:66
  TRACK 125 AUDIO
    TITLE "3:cjc087_2011"
    INDEX 01 04:01:67
  TRACK 126 AUDIO
    TITLE "0:"
    INDEX 01 04:04:02
  TRACK 127 AUDIO
    TITLE "5:cjc087_2012"
    INDEX 01 04:05:53
  TRACK 128 AUDIO
    TITLE "0:"
    INDEX 01 04:08:00
  TRACK 129 AUDIO
    TITLE "3:cjc087_2013"
    INDEX 01 04:08:67
  TRACK 130 AUDIO
    TITLE "4:cjc087_2014"
    INDEX 01 04:13:07
  TRACK 131 AUDIO
    TITLE "0:"
    INDEX 01 04:15:08
  TRACK 132 AUDIO
    TITLE "3:cjc087_2015"
    INDEX 01 04:16:05
  TRACK 133 AUDIO
    TITLE "4:cjc087_2016"
    INDEX 01 04:19:47
  TRACK 134 AUDIO
    TITLE "0:"
    INDEX 01 04:22:26
  TRACK 135 AUDIO
    TITLE "3:cjc087_2017"
    INDEX 01 04:23:25
  TRACK 136 AUDIO
    TITLE "4:cjc087_2018"
    INDEX 01 04:25:02
  TRACK 137 AUDIO
    TITLE "0:"
    INDEX 01 04:26:61
  TRACK 138 AUDIO
    TITLE "3:cjc087_2019"
    INDEX 01 04:27:58
  TRACK 139 AUDIO
    TITLE "4:cjc087_2020"
    INDEX 01 04:29:57
  TRACK 140 AUDIO
    TITLE "0:"
    INDEX 01 04:31:56
  TRACK 141 AUDIO
    TITLE "3:cjc087_2021"
    INDEX 01 04:32:55
  TRACK 142 AUDIO
    TITLE "4:cjc087_2022"
    INDEX 01 04:35:05
  TRACK 143 AUDIO
    TITLE "0:"
    INDEX 01 04:37:29
  TRACK 144 AUDIO
    TITLE "3:cjc087_2023"
    INDEX 01 04:38:21
  TRACK 145 AUDIO
    TITLE "4:cjc087_2024"
    INDEX 01 04:41:25
  TRACK 146 AUDIO
    TITLE "0:"
    INDEX 01 04:43:73
  TRACK 147 AUDIO
    TITLE "3:cjc087_2025"
    INDEX 01 04:44:70
  TRACK 148 AUDIO
    TITLE "4:cjc087_2026"
    INDEX 01 04:47:24
  TRACK 149 AUDIO
    TITLE "0:"
    INDEX 01 04:49:28
  TRACK 150 AUDIO
    TITLE "5:cjc087_2027"
    INDEX 01 04:50:57
  TRACK 151 AUDIO
    TITLE "0:"
    INDEX 01 04:52:74
  TRACK 152 AUDIO
    TITLE "4:cjc087_2028"
    INDEX 01 04:53:71
  TRACK 153 AUDIO
    TITLE "3:cjc087_2029"
    INDEX 01 04:56:58
  TRACK 154 AUDIO
    TITLE "0:"
    INDEX 01 04:59:27
  TRACK 155 AUDIO
    TITLE "4:cjc087_2030"
    INDEX 01 05:00:26
  TRACK 156 AUDIO
    TITLE "3:cjc087_2031"
    INDEX 01 05:02:37
  TRACK 157 AUDIO
    TITLE "0:"
    INDEX 01 05:05:10
  TRACK 158 AUDIO
    TITLE "4:cjc087_2032"
    INDEX 01 05:06:07
  TRACK 159 AUDIO
    TITLE "3:cjc087_2033"
    INDEX 01 05:07:73
  TRACK 160 AUDIO
    TITLE "0:"
    INDEX 01 05:09:60
  TRACK 161 AUDIO
    TITLE "4:cjc087_2034"
    INDEX 01 05:10:58
  TRACK 162 AUDIO
    TITLE "3:cjc087_2035"
    INDEX 01 05:13:21
  TRACK 163 AUDIO
    TITLE "0:"
    INDEX 01 05:15:55
  TRACK 164 AUDIO
    TITLE "4:cjc087_2036"
    INDEX 01 05:16:53
  TRACK 165 AUDIO
    TITLE "3:cjc087_2037"
    INDEX 01 05:18:71
  TRACK 166 AUDIO
    TITLE "0:"
    INDEX 01 05:22:00
  TRACK 167 AUDIO
    TITLE "4:cjc087_2038"
    INDEX 01 05:22:73
  TRACK 168 AUDIO
    TITLE "3:cjc087_2039"
    INDEX 01 05:25:18
  TRACK 169 AUDIO
    TITLE "0:"
    INDEX 01 05:28:01
  TRACK 170 AUDIO
    TITLE "4:cjc087_2040"
    INDEX 01 05:28:73
  TRACK 171 AUDIO
    TITLE "3:cjc087_2041"
    INDEX 01 05:30:47
  TRACK 172 AUDIO
    TITLE "0:"
    INDEX 01 05:32:73
  TRACK 173 AUDIO
    TITLE "5:cjc087_2042"
    INDEX 01 05:34:33
  TRACK 174 AUDIO
    TITLE "0:"
    INDEX 01 05:36:32
  TRACK 175 AUDIO
    TITLE "3:cjc087_2043"
    INDEX 01 05:37:23
  TRACK 176 AUDIO
    TITLE "4:cjc087_2044"
    INDEX 01 05:39:07
  TRACK 177 AUDIO
    TITLE "0:"
    INDEX 01 05:40:69
  TRACK 178 AUDIO
    TITLE "3:cjc087_2045"
    INDEX 01 05:41:66
  TRACK 179 AUDIO
    TITLE "4:cjc087_2046"
    INDEX 01 05:44:08
  TRACK 180 AUDIO
    TITLE "0:"
    INDEX 01 05:46:28
  TRACK 181 AUDIO
    TITLE "3:cjc087_2047"
    INDEX 01 05:47:26
  TRACK 182 AUDIO
    TITLE "4:cjc087_2048"
    INDEX 01 05:49:21
  TRACK 183 AUDIO
    TITLE "0:"
    INDEX 01 05:51:00
  TRACK 184 AUDIO
    TITLE "3:cjc087_2049"
    INDEX 01 05:52:00
  TRACK 185 AUDIO
    TITLE "4:cjc087_2050"
    INDEX 01 05:54:47
  TRACK 186 AUDIO
    TITLE "0:"
    INDEX 01 05:56:66
  TRACK 187 AUDIO
    TITLE "3:cjc087_2051"
    INDEX 01 05:57:63
  TRACK 188 AUDIO
    TITLE "4:cjc087_2052"
    INDEX 01 06:00:46
  TRACK 189 AUDIO
    TITLE "0:"
    INDEX 01 06:03:33
  TRACK 190 AUDIO
    TITLE "3:cjc087_2053"
    INDEX 01 06:04:32
  TRACK 191 AUDIO
    TITLE "4:cjc087_2054"
    INDEX 01 06:07:36
  TRACK 192 AUDIO
    TITLE "0:"
    INDEX 01 06:10:27
  TRACK 193 AUDIO
    TITLE "3:cjc087_2055"
    INDEX 01 06:11:24
  TRACK 194 AUDIO
    TITLE "4:cjc087_2056"
    INDEX 01 06:13:33
  TRACK 195 AUDIO
    TITLE "0:"
    INDEX 01 06:17:15
  TRACK 196 AUDIO
    TITLE "2:cjc087_2057"
    INDEX 01 06:18:48
  TRACK 197 AUDIO
    TITLE "0:"
    INDEX 01 06:29:61
  TRACK 198 AUDIO
    TITLE "5:cjc087_2058"
    INDEX 01 06:31:29
  TRACK 199 AUDIO
    TITLE "0:"
    INDEX 01 06:33:44
  TRACK 200 AUDIO
    TITLE "4:cjc087_2059"
    INDEX 01 06:34:39
  TRACK 201 AUDIO
    TITLE "3:cjc087_2060"
    INDEX 01 06:36:22
  TRACK 202 AUDIO
    TITLE "0:"
    INDEX 01 06:38:04
  TRACK 203 AUDIO
    TITLE "4:cjc087_2061"
    INDEX 01 06:39:01
  TRACK 204 AUDIO
    TITLE "3:cjc087_2062"
    INDEX 01 06:41:31
  TRACK 205 AUDIO
    TITLE "0:"
    INDEX 01 06:43:38
  TRACK 206 AUDIO
    TITLE "4:cjc087_2063"
    INDEX 01 06:44:37
  TRACK 207 AUDIO
    TITLE "3:cjc087_2064"
    INDEX 01 06:46:44
  TRACK 208 AUDIO
    TITLE "0:"
    INDEX 01 06:49:37
  TRACK 209 AUDIO
    TITLE "4:cjc087_2065"
    INDEX 01 06:50:36
  TRACK 210 AUDIO
    TITLE "3:cjc087_2066"
    INDEX 01 06:53:17
  TRACK 211 AUDIO
    TITLE "0:"
    INDEX 01 06:55:71
  TRACK 212 AUDIO
    TITLE "4:cjc087_2067"
    INDEX 01 06:56:68
  TRACK 213 AUDIO
    TITLE "3:cjc087_2068"
    INDEX 01 06:58:49
  TRACK 214 AUDIO
    TITLE "0:"
    INDEX 01 07:00:64
  TRACK 215 AUDIO
    TITLE "4:cjc087_2069"
    INDEX 01 07:01:61
  TRACK 216 AUDIO
    TITLE "3:cjc087_2070"
    INDEX 01 07:03:07
  TRACK 217 AUDIO
    TITLE "0:"
    INDEX 01 07:04:66
  TRACK 218 AUDIO
    TITLE "4:cjc087_2071"
    INDEX 01 07:05:65
  TRACK 219 AUDIO
    TITLE "3:cjc087_2072"
    INDEX 01 07:07:50
  TRACK 220 AUDIO
    TITLE "0:"
    INDEX 01 07:10:60
  TRACK 221 AUDIO
    TITLE "5:cjc087_2073"
    INDEX 01 07:12:24
  TRACK 222 AUDIO
    TITLE "0:"
    INDEX 01 07:14:27
  TRACK 223 AUDIO
    TITLE "4:cjc087_2074"
    INDEX 01 07:15:24
  TRACK 224 AUDIO
    TITLE "3:cjc087_2075"
    INDEX 01 07:18:30
  TRACK 225 AUDIO
    TITLE "0:"
    INDEX 01 07:21:43
  TRACK 226 AUDIO
    TITLE "4:cjc087_2076"
    INDEX 01 07:22:42
  TRACK 227 AUDIO
    TITLE "3:cjc087_2077"
    INDEX 01 07:24:15
  TRACK 228 AUDIO
    TITLE "0:"
    INDEX 01 07:25:70
  TRACK 229 AUDIO
    TITLE "4:cjc087_2078"
    INDEX 01 07:26:69
  TRACK 230 AUDIO
    TITLE "3:cjc087_2079"
    INDEX 01 07:28:54
  TRACK 231 AUDIO
    TITLE "0:"
    INDEX 01 07:30:65
  TRACK 232 AUDIO
    TITLE "4:cjc087_2080"
    INDEX 01 07:31:64
  TRACK 233 AUDIO
    TITLE "3:cjc087_2081"
    INDEX 01 07:33:67
  TRACK 234 AUDIO
    TITLE "0:"
    INDEX 01 07:36:05
  TRACK 235 AUDIO
    TITLE "4:cjc087_2082"
    INDEX 01 07:37:22
  TRACK 236 AUDIO
    TITLE "3:cjc087_2083"
    INDEX 01 07:38:55
  TRACK 237 AUDIO
    TITLE "0:"
    INDEX 01 07:40:38
  TRACK 238 AUDIO
    TITLE "4:cjc087_2084"
    INDEX 01 07:41:35
  TRACK 239 AUDIO
    TITLE "3:cjc087_2085"
    INDEX 01 07:43:38
  TRACK 240 AUDIO
    TITLE "0:"
    INDEX 01 07:46:23
  TRACK 241 AUDIO
    TITLE "4:cjc087_2086"
    INDEX 01 07:47:20
  TRACK 242 AUDIO
    TITLE "3:cjc087_2087"
    INDEX 01 07:49:58
  TRACK 243 AUDIO
    TITLE "0:"
    INDEX 01 07:52:10
  TRACK 244 AUDIO
    TITLE "5:cjc087_2088"
    INDEX 01 07:53:45
  TRACK 245 AUDIO
    TITLE "0:"
    INDEX 01 07:55:55
  TRACK 246 AUDIO
    TITLE "4:cjc087_2089"
    INDEX 01 07:56:51
  TRACK 247 AUDIO
    TITLE "3:cjc087_2090"
    INDEX 01 07:59:63
  TRACK 248 AUDIO
    TITLE "0:"
    INDEX 01 08:01:54
  TRACK 249 AUDIO
    TITLE "4:cjc087_2091"
    INDEX 01 08:02:51
  TRACK 250 AUDIO
    TITLE "3:cjc087_2092"
    INDEX 01 08:04:50
  TRACK 251 AUDIO
    TITLE "0:"
    INDEX 01 08:06:53
  TRACK 252 AUDIO
    TITLE "4:cjc087_2093"
    INDEX 01 08:07:51
  TRACK 253 AUDIO
    TITLE "3:cjc087_2094"
    INDEX 01 08:10:18
  TRACK 254 AUDIO
    TITLE "0:"
    INDEX 01 08:14:00
  TRACK 255 AUDIO
    TITLE "4:cjc087_2095"
    INDEX 01 08:14:74
  TRACK 256 AUDIO
    TITLE "3:cjc087_2096"
    INDEX 01 08:17:55
  TRACK 257 AUDIO
    TITLE "0:"
    INDEX 01 08:20:37
  TRACK 258 AUDIO
    TITLE "4:cjc087_2097"
    INDEX 01 08:21:35
  TRACK 259 AUDIO
    TITLE "3:cjc087_2098"
    INDEX 01 08:22:62
  TRACK 260 AUDIO
    TITLE "0:"
    INDEX 01 08:24:65
  TRACK 261 AUDIO
    TITLE "4:cjc087_2099"
    INDEX 01 08:25:62
  TRACK 262 AUDIO
    TITLE "3:cjc087_2100"
    INDEX 01 08:28:21
  TRACK 263 AUDIO
    TITLE "0:"
    INDEX 01 08:31:12
  TRACK 264 AUDIO
    TITLE "4:cjc087_2101"
    INDEX 01 08:32:13
  TRACK 265 AUDIO
    TITLE "3:cjc087_2102"
    INDEX 01 08:33:50
  TRACK 266 AUDIO
    TITLE "0:"
    INDEX 01 08:36:01
  TRACK 267 AUDIO
    TITLE "5:cjc087_2103"
    INDEX 01 08:37:36
  TRACK 268 AUDIO
    TITLE "0:"
    INDEX 01 08:39:49
  TRACK 269 AUDIO
    TITLE "4:cjc087_2104"
    INDEX 01 08:40:46
  TRACK 270 AUDIO
    TITLE "3:cjc087_2105"
    INDEX 01 08:42:06
  TRACK 271 AUDIO
    TITLE "0:"
    INDEX 01 08:44:59
  TRACK 272 AUDIO
    TITLE "4:cjc087_2106"
    INDEX 01 08:45:57
  TRACK 273 AUDIO
    TITLE "3:cjc087_2107"
    INDEX 01 08:48:28
  TRACK 274 AUDIO
    TITLE "0:"
    INDEX 01 08:50:52
  TRACK 275 AUDIO
    TITLE "4:cjc087_2108"
    INDEX 01 08:51:48
  TRACK 276 AUDIO
    TITLE "3:cjc087_2109"
    INDEX 01 08:53:68
  TRACK 277 AUDIO
    TITLE "0:"
    INDEX 01 08:56:37
  TRACK 278 AUDIO
    TITLE "4:cjc087_2110"
    INDEX 01 08:57:35
  TRACK 279 AUDIO
    TITLE "3:cjc087_2111"
    INDEX 01 08:59:24
  TRACK 280 AUDIO
    TITLE "0:"
    INDEX 01 09:02:26
  TRACK 281 AUDIO
    TITLE "4:cjc087_2112"
    INDEX 01 09:03:26
  TRACK 282 AUDIO
    TITLE "3:cjc087_2113"
    INDEX 01 09:04:68
  TRACK 283 AUDIO
    TITLE "0:"
    INDEX 01 09:06:47
  TRACK 284 AUDIO
    TITLE "4:cjc087_2114"
    INDEX 01 09:07:45
  TRACK 285 AUDIO
    TITLE "3:cjc087_2115"
    INDEX 01 09:09:65
  TRACK 286 AUDIO
    TITLE "0:"
    INDEX 01 09:11:41
  TRACK 287 AUDIO
    TITLE "4:cjc087_2116"
    INDEX 01 09:12:40
  TRACK 288 AUDIO
    TITLE "3:cjc087_2117"
    INDEX 01 09:14:33
  TRACK 289 AUDIO
    TITLE "0:"
    INDEX 01 09:16:26
  TRACK 290 AUDIO
    TITLE "5:cjc087_2118"
    INDEX 01 09:17:61
  TRACK 291 AUDIO
    TITLE "0:"
    INDEX 01 09:19:70
  TRACK 292 AUDIO
    TITLE "4:cjc087_2119"
    INDEX 01 09:20:65
  TRACK 293 AUDIO
    TITLE "3:cjc087_2120"
    INDEX 01 09:23:07
  TRACK 294 AUDIO
    TITLE "0:"
    INDEX 01 09:25:45
  TRACK 295 AUDIO
    TITLE "4:cjc087_2121"
    INDEX 01 09:26:44
  TRACK 296 AUDIO
    TITLE "3:cjc087_2122"
    INDEX 01 09:28:67
  TRACK 297 AUDIO
    TITLE "0:"
    INDEX 01 09:31:14
  TRACK 298 AUDIO
    TITLE "4:cjc087_2123"
    INDEX 01 09:32:12
  TRACK 299 AUDIO
    TITLE "3:cjc087_2124"
    INDEX 01 09:33:70
  TRACK 300 AUDIO
    TITLE "0:"
    INDEX 01 09:36:35
  TRACK 301 AUDIO
    TITLE "4:cjc087_2125"
    INDEX 01 09:37:34
  TRACK 302 AUDIO
    TITLE "3:cjc087_2126"
    INDEX 01 09:39:57
  TRACK 303 AUDIO
    TITLE "0:"
    INDEX 01 09:42:02
  TRACK 304 AUDIO
    TITLE "4:cjc087_2127"
    INDEX 01 09:42:73
  TRACK 305 AUDIO
    TITLE "3:cjc087_2128"
    INDEX 01 09:44:26
  TRACK 306 AUDIO
    TITLE "0:"
    INDEX 01 09:46:37
  TRACK 307 AUDIO
    TITLE "4:cjc087_2129"
    INDEX 01 09:47:37
  TRACK 308 AUDIO
    TITLE "3:cjc087_2130"
    INDEX 01 09:50:07
  TRACK 309 AUDIO
    TITLE "0:"
    INDEX 01 09:52:46
  TRACK 310 AUDIO
    TITLE "4:cjc087_2131"
    INDEX 01 09:53:45
  TRACK 311 AUDIO
    TITLE "3:cjc087_2132"
    INDEX 01 09:55:48
  TRACK 312 AUDIO
    TITLE "0:"
    INDEX 01 09:57:66
  TRACK 313 AUDIO
    TITLE "2:cjc087_2133"
    INDEX 01 09:59:24
  TRACK 314 AUDIO
    TITLE "0:"
    INDEX 01 10:11:10
  TRACK 315 AUDIO
    TITLE "5:cjc087_2134"
    INDEX 01 10:12:50
  TRACK 316 AUDIO
    TITLE "0:"
    INDEX 01 10:14:65
  TRACK 317 AUDIO
    TITLE "4:cjc087_2135"
    INDEX 01 10:15:54
  TRACK 318 AUDIO
    TITLE "3:cjc087_2136"
    INDEX 01 10:18:06
  TRACK 319 AUDIO
    TITLE "0:"
    INDEX 01 10:20:34
  TRACK 320 AUDIO
    TITLE "4:cjc087_2137"
    INDEX 01 10:21:32
  TRACK 321 AUDIO
    TITLE "3:cjc087_2138"
    INDEX 01 10:23:21
  TRACK 322 AUDIO
    TITLE "0:"
    INDEX 01 10:25:33
  TRACK 323 AUDIO
    TITLE "4:cjc087_2139"
    INDEX 01 10:26:31
  TRACK 324 AUDIO
    TITLE "3:cjc087_2140"
    INDEX 01 10:28:59
  TRACK 325 AUDIO
    TITLE "0:"
    INDEX 01 10:30:44
  TRACK 326 AUDIO
    TITLE "4:cjc087_2141"
    INDEX 01 10:31:44
  TRACK 327 AUDIO
    TITLE "3:cjc087_2142"
    INDEX 01 10:33:21
  TRACK 328 AUDIO
    TITLE "0:"
    INDEX 01 10:35:43
  TRACK 329 AUDIO
    TITLE "4:cjc087_2143"
    INDEX 01 10:36:43
  TRACK 330 AUDIO
    TITLE "3:cjc087_2144"
    INDEX 01 10:38:40
  TRACK 331 AUDIO
    TITLE "0:"
    INDEX 01 10:40:72
  TRACK 332 AUDIO
    TITLE "4:cjc087_2145"
    INDEX 01 10:41:71
  TRACK 333 AUDIO
    TITLE "3:cjc087_2146"
    INDEX 01 10:43:45
  TRACK 334 AUDIO
    TITLE "0:"
    INDEX 01 10:45:54
  TRACK 335 AUDIO
    TITLE "4:cjc087_2147"
    INDEX 01 10:46:51
  TRACK 336 AUDIO
    TITLE "3:cjc087_2148"
    INDEX 01 10:48:60
  TRACK 337 AUDIO
    TITLE "0:"
    INDEX 01 10:50:47
  TRACK 338 AUDIO
    TITLE "4:cjc087_2149"
    INDEX 01 10:51:46
  TRACK 339 AUDIO
    TITLE "3:cjc087_2150"
    INDEX 01 10:53:00
  TRACK 340 AUDIO
    TITLE "0:"
    INDEX 01 10:55:11
  TRACK 341 AUDIO
    TITLE "5:cjc087_2151"
    INDEX 01 10:56:46
  TRACK 342 AUDIO
    TITLE "0:"
    INDEX 01 10:58:58
  TRACK 343 AUDIO
    TITLE "4:cjc087_2152"
    INDEX 01 10:59:54
  TRACK 344 AUDIO
    TITLE "3:cjc087_2153"
    INDEX 01 11:01:06
  TRACK 345 AUDIO
    TITLE "0:"
    INDEX 01 11:02:62
  TRACK 346 AUDIO
    TITLE "4:cjc087_2154"
    INDEX 01 11:03:59
  TRACK 347 AUDIO
    TITLE "3:cjc087_2155"
    INDEX 01 11:06:11
  TRACK 348 AUDIO
    TITLE "0:"
    INDEX 01 11:08:68
  TRACK 349 AUDIO
    TITLE "4:cjc087_2156"
    INDEX 01 11:09:64
  TRACK 350 AUDIO
    TITLE "3:cjc087_2157"
    INDEX 01 11:11:61
  TRACK 351 AUDIO
    TITLE "0:"
    INDEX 01 11:13:64
  TRACK 352 AUDIO
    TITLE "4:cjc087_2158"
    INDEX 01 11:14:63
  TRACK 353 AUDIO
    TITLE "3:cjc087_2159"
    INDEX 01 11:16:48
  TRACK 354 AUDIO
    TITLE "0:"
    INDEX 01 11:18:65
  TRACK 355 AUDIO
    TITLE "4:cjc087_2160"
    INDEX 01 11:19:62
  TRACK 356 AUDIO
    TITLE "3:cjc087_2161"
    INDEX 01 11:21:49
  TRACK 357 AUDIO
    TITLE "0:"
    INDEX 01 11:24:11
  TRACK 358 AUDIO
    TITLE "4:cjc087_2162"
    INDEX 01 11:25:10
  TRACK 359 AUDIO
    TITLE "3:cjc087_2163"
    INDEX 01 11:26:58
  TRACK 360 AUDIO
    TITLE "0:"
    INDEX 01 11:29:45
  TRACK 361 AUDIO
    TITLE "4:cjc087_2164"
    INDEX 01 11:30:44
  TRACK 362 AUDIO
    TITLE "3:cjc087_2165"
    INDEX 01 11:32:04
  TRACK 363 AUDIO
    TITLE "0:"
    INDEX 01 11:33:72
  TRACK 364 AUDIO
    TITLE "5:cjc087_2166"
    INDEX 01 11:35:32
  TRACK 365 AUDIO
    TITLE "0:"
    INDEX 01 11:37:45
  TRACK 366 AUDIO
    TITLE "4:cjc087_2167"
    INDEX 01 11:38:36
  TRACK 367 AUDIO
    TITLE "3:cjc087_2168"
    INDEX 01 11:39:63
  TRACK 368 AUDIO
    TITLE "0:"
    INDEX 01 11:41:50
  TRACK 369 AUDIO
    TITLE "4:cjc087_2169"
    INDEX 01 11:42:50
  TRACK 370 AUDIO
    TITLE "3:cjc087_2170"
    INDEX 01 11:44:58
  TRACK 371 AUDIO
    TITLE "0:"
    INDEX 01 11:47:59
  TRACK 372 AUDIO
    TITLE "4:cjc087_2171"
    INDEX 01 11:48:58
  TRACK 373 AUDIO
    TITLE "3:cjc087_2172"
    INDEX 01 11:50:30
  TRACK 374 AUDIO
    TITLE "0:"
    INDEX 01 11:52:09
  TRACK 375 AUDIO
    TITLE "4:cjc087_2173"
    INDEX 01 11:53:06
  TRACK 376 AUDIO
    TITLE "3:cjc087_2174"
    INDEX 01 11:55:25
  TRACK 377 AUDIO
    TITLE "0:"
    INDEX 01 11:57:41
  TRACK 378 AUDIO
    TITLE "4:cjc087_2175"
    INDEX 01 11:58:41
  TRACK 379 AUDIO
    TITLE "3:cjc087_2176"
    INDEX 01 12:00:24
  TRACK 380 AUDIO
    TITLE "0:"
    INDEX 01 12:03:40
  TRACK 381 AUDIO
    TITLE "4:cjc087_2177"
    INDEX 01 12:04:34
  TRACK 382 AUDIO
    TITLE "3:cjc087_2178"
    INDEX 01 12:06:27
  TRACK 383 AUDIO
    TITLE "0:"
    INDEX 01 12:08:12
  TRACK 384 AUDIO
    TITLE "4:cjc087_2179"
    INDEX 01 12:09:11
  TRACK 385 AUDIO
    TITLE "3:cjc087_2180"
    INDEX 01 12:11:06
  TRACK 386 AUDIO
    TITLE "0:"
    INDEX 01 12:13:25
  TRACK 387 AUDIO
    TITLE "5:cjc087_2181"
    INDEX 01 12:14:59
  TRACK 388 AUDIO
    TITLE "0:"
    INDEX 01 12:17:01
  TRACK 389 AUDIO
    TITLE "4:cjc087_2182"
    INDEX 01 12:17:68
  TRACK 390 AUDIO
    TITLE "3:cjc087_2183"
    INDEX 01 12:19:47
  TRACK 391 AUDIO
    TITLE "0:"
    INDEX 01 12:21:56
  TRACK 392 AUDIO
    TITLE "4:cjc087_2184"
    INDEX 01 12:22:55
  TRACK 393 AUDIO
    TITLE "3:cjc087_2185"
    INDEX 01 12:24:62
  TRACK 394 AUDIO
    TITLE "0:"
    INDEX 01 12:27:21
  TRACK 395 AUDIO
    TITLE "4:cjc087_2186"
    INDEX 01 12:28:18
  TRACK 396 AUDIO
    TITLE "3:cjc087_2187"
    INDEX 01 12:30:09
  TRACK 397 AUDIO
    TITLE "0:"
    INDEX 01 12:31:62
  TRACK 398 AUDIO
    TITLE "4:cjc087_2188"
    INDEX 01 12:32:61
  TRACK 399 AUDIO
    TITLE "3:cjc087_2189"
    INDEX 01 12:34:39
  TRACK 400 AUDIO
    TITLE "0:"
    INDEX 01 12:37:06
  TRACK 401 AUDIO
    TITLE "4:cjc087_2190"
    INDEX 01 12:38:05
  TRACK 402 AUDIO
    TITLE "3:cjc087_2191"
    INDEX 01 12:39:51
  TRACK 403 AUDIO
    TITLE "0:"
    INDEX 01 12:41:29
  TRACK 404 AUDIO
    TITLE "4:cjc087_2192"
    INDEX 01 12:42:24
  TRACK 405 AUDIO
    TITLE "3:cjc087_2193"
    INDEX 01 12:43:41
  TRACK 406 AUDIO
    TITLE "0:"
    INDEX 01 12:45:50
  TRACK 407 AUDIO
    TITLE "4:cjc087_2194"
    INDEX 01 12:46:50
  TRACK 408 AUDIO
    TITLE "3:cjc087_2195"
    INDEX 01 12:48:39
  TRACK 409 AUDIO
    TITLE "0:"
    INDEX 01 12:50:32
  TRACK 410 AUDIO
    TITLE "5:cjc087_2196"
    INDEX 01 12:51:66
  TRACK 411 AUDIO
    TITLE "0:"
    INDEX 01 12:53:59
  TRACK 412 AUDIO
    TITLE "4:cjc087_2197"
    INDEX 01 12:54:57
  TRACK 413 AUDIO
    TITLE "3:cjc087_2198"
    INDEX 01 12:56:70
  TRACK 414 AUDIO
    TITLE "0:"
    INDEX 01 12:59:44
  TRACK 415 AUDIO
    TITLE "4:cjc087_2199"
    INDEX 01 13:00:44
  TRACK 416 AUDIO
    TITLE "3:cjc087_2200"
    INDEX 01 13:03:60
  TRACK 417 AUDIO
    TITLE "0:"
    INDEX 01 13:07:22
  TRACK 418 AUDIO
    TITLE "4:cjc087_2201"
    INDEX 01 13:08:22
  TRACK 419 AUDIO
    TITLE "3:cjc087_2202"
    INDEX 01 13:10:01
  TRACK 420 AUDIO
    TITLE "0:"
    INDEX 01 13:12:27
  TRACK 421 AUDIO
    TITLE "4:cjc087_2203"
    INDEX 01 13:13:23
  TRACK 422 AUDIO
    TITLE "3:cjc087_2204"
    INDEX 01 13:15:04
  TRACK 423 AUDIO
    TITLE "0:"
    INDEX 01 13:17:23
  TRACK 424 AUDIO
    TITLE "4:cjc087_2205"
    INDEX 01 13:18:22
  TRACK 425 AUDIO
    TITLE "3:cjc087_2206"
    INDEX 01 13:21:28
  TRACK 426 AUDIO
    TITLE "0:"
    INDEX 01 13:23:43
  TRACK 427 AUDIO
    TITLE "4:cjc087_2207"
    INDEX 01 13:24:44
  TRACK 428 AUDIO
    TITLE "3:cjc087_2208"
    INDEX 01 13:26:16
  TRACK 429 AUDIO
    TITLE "0:"
    INDEX 01 13:28:13
  TRACK 430 AUDIO
    TITLE "4:cjc087_2209"
    INDEX 01 13:29:08
  TRACK 431 AUDIO
    TITLE "3:cjc087_2210"
    INDEX 01 13:30:57
  TRACK 432 AUDIO
    TITLE "0:"
    INDEX 01 13:33:16
  TRACK 433 AUDIO
    TITLE "2:cjc087_2211"
    INDEX 01 13:34:45
  TRACK 434 AUDIO
    TITLE "0:"
    INDEX 01 13:54:38
  TRACK 435 AUDIO
    TITLE "5:cjc087_2212"
    INDEX 01 13:56:03
  TRACK 436 AUDIO
    TITLE "0:"
    INDEX 01 13:58:14
  TRACK 437 AUDIO
    TITLE "4:cjc087_2213"
    INDEX 01 13:59:11
  TRACK 438 AUDIO
    TITLE "3:cjc087_2214"
    INDEX 01 14:01:14
  TRACK 439 AUDIO
    TITLE "0:"
    INDEX 01 14:03:29
  TRACK 440 AUDIO
    TITLE "4:cjc087_2215"
    INDEX 01 14:04:24
  TRACK 441 AUDIO
    TITLE "3:cjc087_2216"
    INDEX 01 14:06:62
  TRACK 442 AUDIO
    TITLE "0:"
    INDEX 01 14:09:63
  TRACK 443 AUDIO
    TITLE "4:cjc087_2217"
    INDEX 01 14:10:60
  TRACK 444 AUDIO
    TITLE "3:cjc087_2218"
    INDEX 01 14:12:20
  TRACK 445 AUDIO
    TITLE "0:"
    INDEX 01 14:14:40
  TRACK 446 AUDIO
    TITLE "4:cjc087_2219"
    INDEX 01 14:15:32
  TRACK 447 AUDIO
    TITLE "3:cjc087_2220"
    INDEX 01 14:17:25
  TRACK 448 AUDIO
    TITLE "0:"
    INDEX 01 14:20:04
  TRACK 449 AUDIO
    TITLE "4:cjc087_2221"
    INDEX 01 14:20:74
  TRACK 450 AUDIO
    TITLE "3:cjc087_2222"
    INDEX 01 14:22:73
  TRACK 451 AUDIO
    TITLE "0:"
    INDEX 01 14:25:07
  TRACK 452 AUDIO
    TITLE "4:cjc087_2223"
    INDEX 01 14:26:08
  TRACK 453 AUDIO
    TITLE "3:cjc087_2224"
    INDEX 01 14:28:42
  TRACK 454 AUDIO
    TITLE "0:"
    INDEX 01 14:30:73
  TRACK 455 AUDIO
    TITLE "4:cjc087_2225"
    INDEX 01 14:31:70
  TRACK 456 AUDIO
    TITLE "3:cjc087_2226"
    INDEX 01 14:34:33
  TRACK 457 AUDIO
    TITLE "0:"
    INDEX 01 14:36:46
  TRACK 458 AUDIO
    TITLE "5:cjc087_2227"
    INDEX 01 14:38:07
  TRACK 459 AUDIO
    TITLE "0:"
    INDEX 01 14:40:06
  TRACK 460 AUDIO
    TITLE "4:cjc087_2228"
    INDEX 01 14:41:02
  TRACK 461 AUDIO
    TITLE "3:cjc087_2229"
    INDEX 01 14:44:18
  TRACK 462 AUDIO
    TITLE "0:"
    INDEX 01 14:47:24
  TRACK 463 AUDIO
    TITLE "4:cjc087_2230"
    INDEX 01 14:48:24
  TRACK 464 AUDIO
    TITLE "3:cjc087_2231"
    INDEX 01 14:50:58
  TRACK 465 AUDIO
    TITLE "0:"
    INDEX 01 14:53:40
  TRACK 466 AUDIO
    TITLE "4:cjc087_2232"
    INDEX 01 14:54:34
  TRACK 467 AUDIO
    TITLE "3:cjc087_2233"
    INDEX 01 14:56:47
  TRACK 468 AUDIO
    TITLE "0:"
    INDEX 01 14:59:06
  TRACK 469 AUDIO
    TITLE "4:cjc087_2234"
    INDEX 01 15:00:13
  TRACK 470 AUDIO
    TITLE "3:cjc087_2235"
    INDEX 01 15:01:42
  TRACK 471 AUDIO
    TITLE "0:"
    INDEX 01 15:03:51
  TRACK 472 AUDIO
    TITLE "4:cjc087_2236"
    INDEX 01 15:04:48
  TRACK 473 AUDIO
    TITLE "3:cjc087_2237"
    INDEX 01 15:06:61
  TRACK 474 AUDIO
    TITLE "0:"
    INDEX 01 15:10:25
  TRACK 475 AUDIO
    TITLE "4:cjc087_2238"
    INDEX 01 15:11:23
  TRACK 476 AUDIO
    TITLE "3:cjc087_2239"
    INDEX 01 15:13:06
  TRACK 477 AUDIO
    TITLE "0:"
    INDEX 01 15:15:18
  TRACK 478 AUDIO
    TITLE "4:cjc087_2240"
    INDEX 01 15:16:18
  TRACK 479 AUDIO
    TITLE "3:cjc087_2241"
    INDEX 01 15:19:18
  TRACK 480 AUDIO
    TITLE "0:"
    INDEX 01 15:22:22
  TRACK 481 AUDIO
    TITLE "5:cjc087_2242"
    INDEX 01 15:23:57
  TRACK 482 AUDIO
    TITLE "0:"
    INDEX 01 15:25:60
  TRACK 483 AUDIO
    TITLE "4:cjc087_2243"
    INDEX 01 15:26:57
  TRACK 484 AUDIO
    TITLE "3:cjc087_2244"
    INDEX 01 15:28:68
  TRACK 485 AUDIO
    TITLE "0:"
    INDEX 01 15:31:43
  TRACK 486 AUDIO
    TITLE "4:cjc087_2245"
    INDEX 01 15:32:42
  TRACK 487 AUDIO
    TITLE "3:cjc087_2246"
    INDEX 01 15:34:59
  TRACK 488 AUDIO
    TITLE "0:"
    INDEX 01 15:37:22
  TRACK 489 AUDIO
    TITLE "4:cjc087_2247"
    INDEX 01 15:38:18
  TRACK 490 AUDIO
    TITLE "3:cjc087_2248"
    INDEX 01 15:40:03
  TRACK 491 AUDIO
    TITLE "0:"
    INDEX 01 15:42:21
  TRACK 492 AUDIO
    TITLE "4:cjc087_2249"
    INDEX 01 15:43:19
  TRACK 493 AUDIO
    TITLE "3:cjc087_2250"
    INDEX 01 15:44:59
  TRACK 494 AUDIO
    TITLE "0:"
    INDEX 01 15:46:60
  TRACK 495 AUDIO
    TITLE "4:cjc087_2251"
    INDEX 01 15:47:71
  TRACK 496 AUDIO
    TITLE "3:cjc087_2252"
    INDEX 01 15:50:23
  TRACK 497 AUDIO
    TITLE "0:"
    INDEX 01 15:52:65
  TRACK 498 AUDIO
    TITLE "4:cjc087_2253"
    INDEX 01 15:53:62
  TRACK 499 AUDIO
    TITLE "3:cjc087_2254"
    INDEX 01 15:56:25
  TRACK 500 AUDIO
    TITLE "0:"
    INDEX 01 15:59:08
  TRACK 501 AUDIO
    TITLE "4:cjc087_2255"
    INDEX 01 16:00:07
  TRACK 502 AUDIO
    TITLE "3:cjc087_2256"
    INDEX 01 16:03:64
  TRACK 503 AUDIO
    TITLE "0:"
    INDEX 01 16:07:47
  TRACK 504 AUDIO
    TITLE "5:cjc087_2257"
    INDEX 01 16:09:06
  TRACK 505 AUDIO
    TITLE "0:"
    INDEX 01 16:11:05
  TRACK 506 AUDIO
    TITLE "4:cjc087_2258"
    INDEX 01 16:12:03
  TRACK 507 AUDIO
    TITLE "3:cjc087_2259"
    INDEX 01 16:14:02
  TRACK 508 AUDIO
    TITLE "0:"
    INDEX 01 16:17:02
  TRACK 509 AUDIO
    TITLE "4:cjc087_2260"
    INDEX 01 16:17:74
  TRACK 510 AUDIO
    TITLE "3:cjc087_2261"
    INDEX 01 16:20:00
  TRACK 511 AUDIO
    TITLE "0:"
    INDEX 01 16:21:72
  TRACK 512 AUDIO
    TITLE "4:cjc087_2262"
    INDEX 01 16:22:70
  TRACK 513 AUDIO
    TITLE "3:cjc087_2263"
    INDEX 01 16:28:10
  TRACK 514 AUDIO
    TITLE "0:"
    INDEX 01 16:32:66
  TRACK 515 AUDIO
    TITLE "4:cjc087_2264"
    INDEX 01 16:33:66
  TRACK 516 AUDIO
    TITLE "3:cjc087_2265"
    INDEX 01 16:35:63
  TRACK 517 AUDIO
    TITLE "0:"
    INDEX 01 16:37:65
  TRACK 518 AUDIO
    TITLE "4:cjc087_2266"
    INDEX 01 16:38:63
  TRACK 519 AUDIO
    TITLE "3:cjc087_2267"
    INDEX 01 16:40:70
  TRACK 520 AUDIO
    TITLE "0:"
    INDEX 01 16:43:03
  TRACK 521 AUDIO
    TITLE "4:cjc087_2268"
    INDEX 01 16:44:03
  TRACK 522 AUDIO
    TITLE "3:cjc087_2269"
    INDEX 01 16:45:37
  TRACK 523 AUDIO
    TITLE "0:"
    INDEX 01 16:47:38
  TRACK 524 AUDIO
    TITLE "4:cjc087_2270"
    INDEX 01 16:48:38
  TRACK 525 AUDIO
    TITLE "3:cjc087_2271"
    INDEX 01 16:52:49
  TRACK 526 AUDIO
    TITLE "0:"
    INDEX 01 16:56:04
